<?xml version="1.0" encoding="UTF-8"?> <svg xmlns="http://www.w3.org/2000/svg" id="apple-seeklogo.com" width="36.757" height="45.142" viewBox="0 0 36.757 45.142"><path id="Path_11305" data-name="Path 11305" d="M30.7,23.982a9.978,9.978,0,0,0,6.059,9.134,24.7,24.7,0,0,1-3.124,6.42c-1.881,2.75-3.834,5.49-6.91,5.547-3.023.056-3.995-1.792-7.45-1.792s-4.535,1.736-7.4,1.848c-2.969.112-5.23-2.974-7.127-5.714C.872,33.821-2.09,23.588,1.888,16.681a11.051,11.051,0,0,1,9.341-5.658c2.916-.056,5.668,1.962,7.45,1.962s5.126-2.426,8.642-2.07a10.545,10.545,0,0,1,8.256,4.478A10.209,10.209,0,0,0,30.7,23.982M25.017,7.208A9.943,9.943,0,0,0,27.365,0a10.119,10.119,0,0,0-6.65,3.421A9.448,9.448,0,0,0,18.321,10.4a8.372,8.372,0,0,0,6.7-3.2" transform="translate(0)"></path></svg> 