<?xml version="1.0" encoding="UTF-8"?> <svg xmlns="http://www.w3.org/2000/svg" id="figma" width="29.998" height="44.996" viewBox="0 0 29.998 44.996"><path id="path0_fill" d="M7.5,215a7.5,7.5,0,0,0,7.5-7.5V200H7.5a7.5,7.5,0,0,0,0,15Z" transform="translate(0 -170.002)" fill="#393939"></path><path id="path1_fill" d="M0,107.5A7.5,7.5,0,0,1,7.5,100H15v15H7.5A7.5,7.5,0,0,1,0,107.5Z" transform="translate(0 -85.001)" fill="#4b4b4b"></path><path id="path1_fill_1_" d="M0,7.5A7.5,7.5,0,0,1,7.5,0H15V15H7.5A7.5,7.5,0,0,1,0,7.5Z"></path><path id="path2_fill" d="M100,0h7.5a7.5,7.5,0,1,1,0,15H100Z" transform="translate(-85.001)" fill="#2f2f2f"></path><path id="path3_fill" d="M115,107.5a7.5,7.5,0,1,1-7.5-7.5A7.5,7.5,0,0,1,115,107.5Z" transform="translate(-85.001 -85.001)" fill="#8b8b8b"></path></svg> 