<?xml version="1.0" encoding="UTF-8"?> <svg xmlns="http://www.w3.org/2000/svg" id="Google__G__Logo" width="43.1" height="43.979" viewBox="0 0 43.1 43.979"><path id="Path_11306" data-name="Path 11306" d="M-1089.333-687.239v8.516h11.835a10.14,10.14,0,0,1-4.418,6.617l7.137,5.537c4.158-3.838,6.557-9.475,6.557-16.172a25.265,25.265,0,0,0-.4-4.5Z" transform="translate(1111.323 705.231)" fill="#a2a2a2"></path><path id="Path_11307" data-name="Path 11307" d="M-1167.058-651.791l-1.61,1.232-5.7,4.438h0a21.986,21.986,0,0,0,19.63,12.134,20.988,20.988,0,0,0,14.553-5.318l-7.137-5.537a13.1,13.1,0,0,1-7.416,2.119,13.128,13.128,0,0,1-12.314-9.056Z" transform="translate(1176.724 677.966)" fill="#969696"></path><path id="Path_11308" data-name="Path 11308" d="M-1182.223-712.61a21.721,21.721,0,0,0-2.359,9.855,21.721,21.721,0,0,0,2.359,9.855c0,.02,7.317-5.677,7.317-5.677a13.173,13.173,0,0,1-.7-4.178,13.173,13.173,0,0,1,.7-4.178Z" transform="translate(1184.582 724.744)" fill="#909090"></path><path id="Path_11309" data-name="Path 11309" d="M-1154.734-756.415a12,12,0,0,1,8.416,3.278l6.3-6.3a21.1,21.1,0,0,0-14.713-5.737,21.951,21.951,0,0,0-19.631,12.134l7.316,5.677A13.128,13.128,0,0,1-1154.734-756.415Z" transform="translate(1176.724 765.171)" fill="#8a8a8a"></path></svg> 