<?xml version="1.0" encoding="UTF-8"?> <svg xmlns="http://www.w3.org/2000/svg" width="44.322" height="44.32" viewBox="0 0 44.322 44.32"><path id="Spotify_logo_with_text" d="M22.414.277A22.16,22.16,0,1,0,44.575,22.438,22.161,22.161,0,0,0,22.414.277h0ZM32.577,32.239a1.381,1.381,0,0,1-1.9.458c-5.2-3.178-11.753-3.9-19.467-2.136a1.382,1.382,0,0,1-.615-2.694c8.442-1.929,15.683-1.1,21.524,2.472A1.381,1.381,0,0,1,32.577,32.239ZM35.289,26.2a1.728,1.728,0,0,1-2.376.569c-5.957-3.661-15.037-4.722-22.083-2.583a1.728,1.728,0,1,1-1-3.306c8.048-2.442,18.054-1.259,24.894,2.945a1.727,1.727,0,0,1,.569,2.375Zm.233-6.283C28.38,15.679,16.6,15.289,9.776,17.359a2.073,2.073,0,1,1-1.2-3.967c7.828-2.376,20.841-1.917,29.064,2.964a2.072,2.072,0,1,1-2.114,3.565Z" transform="translate(-0.253 -0.277)" fill="#8a8a8a"></path></svg> 